<svg version="1.1"
      xmlns="http://www.w3.org/2000/svg"
      xmlns:xlink="http://www.w3.org/1999/xlink"  id="snapshot-44110" width="248" height="256" viewBox="0 0 248 256"><desc>This image was made on Patterninja.com</desc><defs>
<!-- image 22235 -->
<g id="transformed-22235" data-image="22235" transform="translate(47.8754845034029, 42.8754845034029) rotate(330, 16.1245154965971, 16.1245154965971)"><g><svg version="1.1" width="32.2490309931942px" height="32.2490309931942px" viewBox="0 0 32.2490309931942 32.2490309931942"><g id="original-22235"><svg xmlns="http://www.w3.org/2000/svg" viewBox="0 0 400 400" xmlns:xlink="http://www.w3.org/1999/xlink" version="1.1" preserveAspectRatio="xMidYMid meet">
  <path d="M306.8 233.2c-.7-2.7-3.4-4.3-6.1-3.6L271 237l-12.8-7.7.5-23.4 13.8-.3c2.8-.1 4.9-2.4 4.9-5.1-.1-2.8-2.4-4.9-5.1-4.9l-13.4.3.5-22.8 9.6-5.1 29.5 9.7c.5.2 1 .2 1.6.2 2.1 0 4.1-1.3 4.8-3.4.9-2.6-.6-5.4-3.2-6.3l-20.5-6.7 20.7-11.1c2.4-1.3 3.3-4.3 2-6.8-1.3-2.4-4.3-3.3-6.8-2L277.5 152l6.5-19.4c.9-2.6-.5-5.5-3.2-6.3-2.6-.9-5.5.5-6.3 3.2l-9.8 29.4-9.8 5.2-18.9-11.5 8.2-13.5c1.4-2.4.7-5.4-1.7-6.9-2.4-1.4-5.4-.7-6.9 1.7l-8.2 13.5-20.9-12.6.3-14.3 22.4-22.4c2-2 2-5.1 0-7.1s-5.1-2-7.1 0l-15 15 .5-21.8c.1-2.8-2.1-5-4.9-5.1-2.7-.1-5 2.1-5.1 4.9l-.5 21.6-14.6-14.8c-1.9-2-5.1-2-7.1 0-2 1.9-2 5.1 0 7.1l21.4 21.7-.3 14.8-22.3 12.3-7.4-12.4c-1.4-2.4-4.5-3.2-6.8-1.8-2.4 1.4-3.2 4.5-1.8 6.8l7.2 12.2-19.4 10.7-12.8-7.6-7.7-29.9c-.7-2.7-3.4-4.3-6.1-3.6-2.7.7-4.3 3.4-3.6 6.1l5.2 20.1-19-11.4c-2.4-1.4-5.4-.6-6.9 1.7-1.4 2.4-.6 5.4 1.7 6.9l19.1 11.5-20.5 5.2c-2.7.7-4.3 3.4-3.6 6.1.6 2.3 2.6 3.8 4.8 3.8.4 0 .8 0 1.2-.2l30.2-7.6 13.5 8.1-.5 22.4-11.9.3c-2.8.1-4.9 2.4-4.9 5.1.1 2.7 2.3 4.9 5 4.9h.1l11.4-.3-.5 21.8-12.6 6.7-29.6-8.1c-2.7-.7-5.4.9-6.1 3.5-.7 2.7.9 5.4 3.5 6.1l19.7 5.3-20.7 11.1c-2.4 1.3-3.3 4.3-2 6.8.9 1.7 2.6 2.6 4.4 2.6.8 0 1.6-.2 2.4-.6l21.8-11.7-5.7 20.8c-.7 2.7.8 5.4 3.5 6.1.4.1.9.2 1.3.2 2.2 0 4.2-1.5 4.8-3.7l8.3-30 11.2-6 19.1 11.6-7.1 10.2c-1.6 2.3-1 5.4 1.3 7 .9.6 1.9.9 2.8.9 1.6 0 3.1-.7 4.1-2.1l7.4-10.7 21.7 13.1-.4 16.3-22.4 22.4c-2 2-2 5.1 0 7.1 1 1 2.3 1.5 3.5 1.5 1.3 0 2.6-.5 3.5-1.5l15-15-.4 18.6c-.1 2.8 2.1 5 4.9 5.1h.1c2.7 0 4.9-2.2 5-4.9l.5-18.3 14.6 14.8c1 1 2.3 1.5 3.6 1.5 1.3 0 2.5-.5 3.5-1.4 2-1.9 2-5.1 0-7.1l-21.4-21.6.4-17.3 19.6-10.8 5.4 9.4c.9 1.6 2.6 2.5 4.3 2.5.8 0 1.7-.2 2.5-.7 2.4-1.4 3.2-4.4 1.9-6.8l-5.3-9.3 20.8-11.4 12.4 7.4 7.8 30.4c.6 2.3 2.6 3.8 4.8 3.8.4 0 .8-.1 1.2-.2 2.7-.7 4.3-3.4 3.6-6.1l-5.3-20.6 16.8 10c.8.5 1.7.7 2.6.7 1.7 0 3.4-.9 4.3-2.4 1.4-2.4.6-5.4-1.7-6.9l-16.3-9.7 20-5.1c2.8-.5 4.4-3.2 3.7-5.9zm-58.5-9.7L209.2 200l40.1-21.5-1 45zm-21.8-64.8l18.2 11-39.4 21.1 1-44.4 20.2 12.3zM196.3 146l-1 45.7-39.4-23.5 40.4-22.2zm-44.8 31.2l37.4 22.4-38.3 20.5.9-42.9zm3 52.2l40.4-21.7-1 45.5-39.4-23.8zm49.4 23.9l1-44.2 38 22.8-39 21.4z" fill="rgba(255, 255, 255, 1.7465753424657535)" stroke="none"/>
</svg>
</g></svg></g></g>
<!-- /image 22235 -->

<!-- image 82153 -->
<g id="transformed-82153" data-image="82153" transform="translate(159, 65) rotate(270, 14.999999999999993, 15)"><g><svg version="1.1" width="29.999999999999986px" height="30px" viewBox="0 0 29.999999999999986 30"><g id="original-82153"><svg xmlns="http://www.w3.org/2000/svg" viewBox="0 0 400 400" xmlns:xlink="http://www.w3.org/1999/xlink" version="1.1" preserveAspectRatio="xMidYMid meet">
  <path d="M284.5 204.2h12.4c2.8 0 5-2.2 5-5s-2.2-5-5-5h-13.8l17.4-18.9c1.9-2 1.8-5.2-.3-7.1-2-1.9-5.2-1.8-7.1.3l-23.7 25.7h-58.3l42.4-42.4 34.9 1.4h.2c2.7 0 4.9-2.1 5-4.8.1-2.8-2-5.1-4.8-5.2l-25.7-1 9.7-9.7c2-2 2-5.1 0-7.1s-5.1-2-7.1 0l-8.7 8.7-.9-23.6c-.1-2.8-2.4-4.9-5.2-4.8-2.8.1-4.9 2.4-4.8 5.2l1.3 32.8-44.1 44.1V129l24.9-23c2-1.9 2.2-5 .3-7.1-1.9-2-5-2.2-7.1-.3l-18.1 16.7v-14.7c0-2.8-2.2-5-5-5s-5 2.2-5 5v14.7l-18.1-16.7c-2-1.9-5.2-1.8-7.1.3-1.9 2-1.8 5.2.3 7.1l24.9 23v58.3l-40.5-40.5 1.4-34.9c.1-2.8-2-5.1-4.8-5.2-2.8-.1-5.1 2-5.2 4.8l-1 25.7-11.6-11.6c-2-2-5.1-2-7.1 0s-2 5.1 0 7.1l10.6 10.6-23.6.9c-2.8.1-4.9 2.4-4.8 5.2.1 2.7 2.3 4.8 5 4.8h.2l32.8-1.3 41.3 41.3h-56.3L106 168.5c-1.9-2-5-2.2-7.1-.3-2 1.9-2.2 5-.3 7.1l17.4 18.9H99.8c-2.8 0-5 2.2-5 5s2.2 5 5 5h15l-16 17.3c-1.9 2-1.8 5.2.3 7.1 1 .9 2.2 1.3 3.4 1.3 1.3 0 2.7-.5 3.7-1.6l22.3-24.1H187l-40.3 40.3-32.8-1.3c-2.8-.1-5.1 2-5.2 4.8-.1 2.8 2 5.1 4.8 5.2l23.6.9-10.6 10.6c-2 2-2 5.1 0 7.1 1 1 2.3 1.5 3.5 1.5 1.3 0 2.6-.5 3.5-1.5l11.6-11.6 1 25.7c.1 2.7 2.3 4.8 5 4.8h.2c2.8-.1 4.9-2.4 4.8-5.2l-1.4-34.9 38.5-38.5v58.3l-24.9 23c-2 1.9-2.2 5-.3 7.1 1.9 2 5 2.2 7.1.3l18.1-16.7v13.8c0 2.8 2.2 5 5 5s5-2.2 5-5v-13.8l18.1 16.7c1 .9 2.2 1.3 3.4 1.3 1.3 0 2.7-.5 3.7-1.6 1.9-2 1.8-5.2-.3-7.1l-24.9-23v-58.8l42.2 42.2-1.3 32.8c-.1 2.8 2 5.1 4.8 5.2h.2c2.7 0 4.9-2.1 5-4.8l.9-23.6 8.7 8.7c1 1 2.3 1.5 3.5 1.5 1.3 0 2.6-.5 3.5-1.5 2-2 2-5.1 0-7.1l-9.7-9.7 25.7-1c2.8-.1 4.9-2.4 4.8-5.2-.1-2.8-2.4-4.9-5.2-4.8l-34.9 1.4-41.4-41.4h60.6l22.3 24.1c1 1.1 2.3 1.6 3.7 1.6 1.2 0 2.4-.4 3.4-1.3 2-1.9 2.2-5 .3-7.1l-15.8-17.4z" fill="rgba(255, 255, 255, 1)" stroke="none"/>
</svg>
</g></svg></g></g>
<!-- /image 82153 -->

<!-- image 98864 -->
<g id="transformed-98864" data-image="98864" transform="translate(79.58359213500127, 153.58359213500125) rotate(26, 13.416407864998735, 13.416407864998739)"><g><svg version="1.1" width="26.83281572999747px" height="26.832815729997478px" viewBox="0 0 26.83281572999747 26.832815729997478"><g id="original-98864"><svg xmlns="http://www.w3.org/2000/svg" viewBox="0 0 400 400" xmlns:xlink="http://www.w3.org/1999/xlink" version="1.1" preserveAspectRatio="xMidYMid meet">
  <path d="M284.6 204.4H297c2.8 0 5-2.2 5-5s-2.2-5-5-5h-13.8l17.4-18.9c1.9-2 1.8-5.2-.3-7.1-2-1.9-5.2-1.8-7.1.3l-23.7 25.7h-24.4l9.8-9.8c2-1.9 2-5.1 0-7.1-1.9-2-5.1-2-7.1 0l-16.5 16.4c-.4.1-.7.3-1.1.5h-26.9v-27.3l16.1-16c2-1.9 2-5.1 0-7.1-1.9-2-5.1-2-7.1 0l-9 9v-23.8l24.9-23c2-1.9 2.2-5 .3-7.1-1.9-2-5-2.2-7.1-.3l-18.1 16.7v-14.7c0-2.8-2.2-5-5-5s-5 2.2-5 5v14.7l-18.1-16.7c-2-1.9-5.2-1.8-7.1.3-1.9 2-1.8 5.2.3 7.1l24.9 23v22l-8.1-8.1c-2-1.9-5.1-1.9-7.1 0-1.9 2-1.9 5.1 0 7.1l15.2 15.1v29.1h-25.8c-.1-.1-.1-.2-.2-.3-.6-.6-1.3-1-2-1.2l-15.5-15.4c-2-1.9-5.1-1.9-7.1 0-1.9 2-1.9 5.1 0 7.1l9.8 9.8h-22.8L106 168.7c-1.9-2-5-2.2-7.1-.3-2 1.9-2.2 5-.3 7.1l17.4 18.9H99.9c-2.8 0-5 2.2-5 5s2.2 5 5 5h15l-16 17.3c-1.9 2-1.8 5.2.3 7.1 1 .9 2.2 1.3 3.4 1.3 1.3 0 2.7-.5 3.7-1.6l22.3-24.1H150l-8.1 8c-2 1.9-2 5.1 0 7.1 1 1 2.3 1.5 3.5 1.5 1.3 0 2.6-.5 3.5-1.5l15.2-15.1h29.3v27.3l-16.2 16.1c-2 1.9-2 5.1 0 7.1 1 1 2.3 1.5 3.5 1.5 1.3 0 2.6-.5 3.5-1.5l9.1-9.1v24.6l-24.9 23c-2 1.9-2.2 5-.3 7.1 1.9 2 5 2.2 7.1.3l18.1-16.7v13.8c0 2.8 2.2 5 5 5s5-2.2 5-5v-13.8l18.1 16.7c1 .9 2.2 1.3 3.4 1.3 1.3 0 2.7-.5 3.7-1.6 1.9-2 1.8-5.2-.3-7.1l-24.9-23v-24.6l9.1 9.1c1 1 2.3 1.5 3.5 1.5 1.3 0 2.6-.5 3.5-1.5 1.9-2 1.9-5.1 0-7.1l-16.2-16.1v-27.3h28.3l16.2 16.1c1 1 2.3 1.5 3.5 1.5 1.3 0 2.6-.5 3.5-1.5 1.9-2 1.9-5.1 0-7.1l-9.1-9h25.1l22.3 24.1c1 1.1 2.3 1.6 3.7 1.6 1.2 0 2.4-.4 3.4-1.3 2-1.9 2.2-5 .3-7.1l-15.8-17.3z" fill="rgba(255, 255, 255, 1)" stroke="none"/>
  <path d="M228.4 221.5c-2-1.9-5.1-1.9-7.1.1-1.9 2-1.9 5.1.1 7.1l13.9 13.7c1 1 2.2 1.4 3.5 1.4 1.3 0 2.6-.5 3.6-1.5 1.9-2 1.9-5.1-.1-7.1l-13.9-13.7z" fill="rgba(255, 255, 255, 1)" stroke="none"/>
  <path d="M168.6 175.4c1 1 2.2 1.4 3.5 1.4 1.3 0 2.6-.5 3.6-1.5 1.9-2 1.9-5.1-.1-7.1L160.1 153c-2-1.9-5.1-1.9-7.1.1-1.9 2-1.9 5.1.1 7.1l15.5 15.2z" fill="rgba(255, 255, 255, 1)" stroke="none"/>
  <path d="M175.6 221.1c-2-1.9-5.1-1.9-7.1.1L152.9 237c-1.9 2-1.9 5.1.1 7.1 1 1 2.2 1.4 3.5 1.4 1.3 0 2.6-.5 3.6-1.5l15.6-15.8c1.9-2 1.8-5.2-.1-7.1z" fill="rgba(255, 255, 255, 1)" stroke="none"/>
  <path d="M221.7 175.5c1 1 2.2 1.4 3.5 1.4 1.3 0 2.6-.5 3.6-1.5l13.5-13.7c1.9-2 1.9-5.1-.1-7.1-2-1.9-5.1-1.9-7.1.1l-13.5 13.7c-1.9 2-1.9 5.2.1 7.1z" fill="rgba(255, 255, 255, 1)" stroke="none"/>
</svg>
</g></svg></g></g>
<!-- /image 98864 -->

<!-- image 24605 -->
<g id="transformed-24605" data-image="24605" transform="translate(157, 187) rotate(247, 13, 13)"><g><svg version="1.1" width="26px" height="26px" viewBox="0 0 26 26"><g id="original-24605"><svg xmlns="http://www.w3.org/2000/svg" viewBox="0 0 400 400" xmlns:xlink="http://www.w3.org/1999/xlink" version="1.1" preserveAspectRatio="xMidYMid meet">
  <path d="M314.3 192.6H292l14.8-14c2-1.9 2.1-5.1.2-7.1-1.9-2-5.1-2.1-7.1-.2l-22.5 21.3h-18.3l30.9-42.2c1.2-1.6 1.3-3.7.3-5.5a5.1 5.1 0 0 0-4.9-2.5l-49 5.3 8.9-14.2 30.7-7.7c2.7-.7 4.3-3.4 3.6-6.1-.7-2.7-3.4-4.3-6.1-3.6l-20.5 5.2 11.6-18.4c1.5-2.3.8-5.4-1.6-6.9-2.3-1.5-5.4-.8-6.9 1.6l-11.5 18.3-5-20.2c-.7-2.7-3.4-4.3-6-3.7-2.7.7-4.3 3.4-3.7 6l7.3 29.6-11.3 18-22.1-50.2c-.8-1.8-2.6-3-4.6-3-2 0-3.8 1.2-4.6 3l-22.2 50.4-10.9-17.4 6.7-30.2c.6-2.7-1.1-5.4-3.8-6-2.7-.6-5.4 1.1-6 3.8l-4.5 20.3-11.8-18.8c-1.5-2.3-4.6-3-6.9-1.6-2.3 1.5-3 4.6-1.6 6.9l11.9 18.9-20.7-4.7c-2.7-.6-5.4 1.1-6 3.8-.6 2.7 1.1 5.4 3.8 6l30.4 6.9 8.8 14-48.8-5.3c-2-.2-3.9.8-4.9 2.5-1 1.7-.9 3.9.3 5.5l30.9 42.2H122l-22.5-21.3c-2-1.9-5.2-1.8-7.1.2-1.9 2-1.8 5.2.2 7.1l14.8 14H84.2c-2.8 0-5 2.2-5 5s2.2 5 5 5H109l-14.9 15.6c-1.9 2-1.8 5.2.2 7.1 1 .9 2.2 1.4 3.4 1.4 1.3 0 2.6-.5 3.6-1.5l21.4-22.5h16.6l-30.7 42c-1.2 1.6-1.3 3.7-.3 5.5 1 1.7 2.9 2.7 4.9 2.5l49-5.3L151 265l-28.3 7.1c-2.7.7-4.3 3.4-3.6 6.1.6 2.3 2.6 3.8 4.8 3.8.4 0 .8 0 1.2-.2l18.2-4.6-9.5 15.1c-1.5 2.3-.8 5.4 1.6 6.9.8.5 1.7.8 2.7.8 1.7 0 3.3-.8 4.2-2.3l11.2-17.8 5.5 22.5c.6 2.3 2.6 3.8 4.9 3.8.4 0 .8 0 1.2-.1 2.7-.7 4.3-3.4 3.7-6l-7.8-31.7v-.1l11.8-18.8 22.1 50.2c.8 1.8 2.6 3 4.6 3 2 0 3.8-1.2 4.6-3l22.1-50 11.5 18.4-7.1 31.9c-.6 2.7 1.1 5.4 3.8 6 .4.1.7.1 1.1.1 2.3 0 4.4-1.6 4.9-3.9l4.9-22 11.2 17.7c.9 1.5 2.6 2.3 4.2 2.3.9 0 1.8-.2 2.7-.8 2.3-1.5 3-4.6 1.6-6.9l-9.9-15.8 19 4.3c.4.1.7.1 1.1.1 2.3 0 4.3-1.6 4.9-3.9.6-2.7-1.1-5.4-3.8-6l-28.7-6.5-11-17.4 49.2 5.3c2 .2 3.9-.8 4.9-2.5 1-1.7.9-3.9-.3-5.5l-30.7-42h17.6l21.4 22.5c1 1 2.3 1.5 3.6 1.5 1.2 0 2.5-.5 3.4-1.4 2-1.9 2.1-5.1.2-7.1L291 202.5h23.5c2.8 0 5-2.2 5-5s-2.5-4.9-5.2-4.9zm-39-39l-28.5 39h-38.4l21.4-34 45.5-5zm-76-43.8l20.3 46-20.4 32.4L179 156l20.3-46.2zm-75.9 43.8l45.4 4.9 21.4 34h-38.3l-28.5-38.9zm0 87.7l28.3-38.7h38.4L169 236.4l-45.6 4.9zm75.9 43.9l-20.3-46 20.2-32.1 20.3 32.3-20.2 45.8zm76-43.9l-45.8-5-21.2-33.7h38.6l28.4 38.7z" fill="rgba(255, 255, 255, 1)" stroke="none"/>
</svg>
</g></svg></g></g>
<!-- /image 24605 -->

<!-- image 44008 -->
<g id="transformed-44008" data-image="44008" transform="translate(30.338096210309402, 204.3380962103094) rotate(329, 11.6619037896906, 11.661903789690601)"><g><svg version="1.1" width="23.3238075793812px" height="23.323807579381203px" viewBox="0 0 23.3238075793812 23.323807579381203"><g id="original-44008"><svg xmlns="http://www.w3.org/2000/svg" viewBox="0 0 400 400" xmlns:xlink="http://www.w3.org/1999/xlink" version="1.1" preserveAspectRatio="xMidYMid meet">
  <path d="M306.8 238.8l-17.2-7.2 18-7.4c2.6-1 3.8-4 2.7-6.5-1-2.6-4-3.8-6.5-2.7l-27.3 11.2-67.5-28.5 56.2-39.4 30.5 6.1c.3.1.7.1 1 .1 2.3 0 4.4-1.6 4.9-4 .5-2.7-1.2-5.3-3.9-5.9l-21.1-4.2 19.3-13.5c2.3-1.6 2.8-4.7 1.2-7-1.6-2.3-4.7-2.8-7-1.2l-18.3 12.8 4.1-20c.6-2.7-1.2-5.3-3.9-5.9-2.7-.6-5.3 1.2-5.9 3.9l-6.2 30.4-56.6 39.7-3.5-69.6 20.6-24c1.8-2.1 1.6-5.2-.5-7.1-2.1-1.8-5.2-1.6-7.1.5l-13.9 16-1.1-21.8c-.1-2.8-2.5-4.9-5.2-4.7-2.8.1-4.9 2.5-4.7 5.2l1.1 21.5-15.7-13.7c-2.1-1.8-5.2-1.6-7.1.5-1.8 2.1-1.6 5.2.5 7.1l23 20 3.6 71.5-65.2-27.4-11.9-28.5c-1.1-2.6-4-3.8-6.5-2.7-2.6 1.1-3.8 4-2.7 6.5l8 19.2-20.4-8.6c-2.5-1.1-5.5.1-6.5 2.7-1.1 2.5.1 5.5 2.7 6.5l20.6 8.6-19.6 8c-2.6 1-3.8 4-2.7 6.5.8 1.9 2.7 3.1 4.6 3.1.6 0 1.3-.1 1.9-.4l28.9-11.8 64.1 26.9-55.6 39-30.7-4.5c-2.7-.4-5.3 1.5-5.7 4.2-.4 2.7 1.5 5.3 4.2 5.7l20.2 2.9-19.2 13.5c-2.3 1.6-2.8 4.7-1.2 7 1 1.4 2.5 2.1 4.1 2.1 1 0 2-.3 2.9-.9l20.3-14.2-3.2 21.3c-.4 2.7 1.5 5.3 4.2 5.7.3 0 .5.1.8.1 2.4 0 4.6-1.8 4.9-4.3l4.6-30.7 55.2-38.7 3.7 73.5-19.1 22.1c-1.8 2.1-1.6 5.2.5 7.1.9.8 2.1 1.2 3.3 1.2 1.4 0 2.8-.6 3.8-1.7l12.3-14.2.9 17.9c.1 2.7 2.3 4.7 5 4.7h.3c2.8-.1 4.9-2.5 4.7-5.2l-1.1-21 17.4 15.2c.9.8 2.1 1.2 3.3 1.2 1.4 0 2.8-.6 3.8-1.7 1.8-2.1 1.6-5.2-.5-7.1l-24.6-21.5s-.1 0-.1-.1l-3.7-72.1 66.3 27.8 12.5 30.1c.8 1.9 2.7 3.1 4.6 3.1.6 0 1.3-.1 1.9-.4 2.6-1.1 3.8-4 2.7-6.5l-8.6-20.8 19.3 8.1c.6.3 1.3.4 1.9.4 2 0 3.8-1.2 4.6-3.1 1-2-.2-5-2.7-6z" fill="rgba(255, 255, 255, 1)" stroke="none"/>
</svg>
</g></svg></g></g>
<!-- /image 44008 -->

<!-- image 65313 -->
<g id="transformed-65313" data-image="65313" transform="translate(89.86725404957845, 94.86725404957845) rotate(352, 15.13274595042155, 15.132745950421556)"><g><svg version="1.1" width="30.2654919008431px" height="30.265491900843113px" viewBox="0 0 30.2654919008431 30.265491900843113"><g id="original-65313"><svg xmlns="http://www.w3.org/2000/svg" viewBox="0 0 400 400" xmlns:xlink="http://www.w3.org/1999/xlink" version="1.1" preserveAspectRatio="xMidYMid meet">
  <path d="M285 204.4h12.4c2.8 0 5-2.2 5-5s-2.2-5-5-5h-13.8l17.4-18.9c1.9-2 1.8-5.2-.3-7.1-2-1.9-5.2-1.8-7.1.3l-23.7 25.7h-24l34.1-32.5c1.4-1.4 1.9-3.5 1.2-5.3-.7-1.9-2.4-3.2-4.4-3.3l-29.4-2.1-.9-28.3c-.1-2-1.3-3.7-3.1-4.5-1.8-.7-3.9-.3-5.4 1.1l-34.3 33.6v-23.9l24.9-23c2-1.9 2.2-5 .3-7.1-1.9-2-5-2.2-7.1-.3l-18.1 16.7v-14.7c0-2.8-2.2-5-5-5s-5 2.2-5 5v14.7l-18.1-16.7c-2-1.9-5.2-1.8-7.1.3-1.9 2-1.8 5.2.3 7.1l24.9 23v22.7L161.5 118c-1.4-1.4-3.4-1.9-5.3-1.3-1.9.7-3.2 2.4-3.3 4.4l-2.1 29.4-28.3.9c-2 .1-3.7 1.3-4.5 3.1-.7 1.8-.3 3.9 1.1 5.4l33.9 34.6h-22.7l-23.7-25.7c-1.9-2-5-2.2-7.1-.3-2 1.9-2.2 5-.3 7.1l17.4 18.9h-16.4c-2.8 0-5 2.2-5 5s2.2 5 5 5h15l-16 17.3c-1.9 2-1.8 5.2.3 7.1 1 .9 2.2 1.3 3.4 1.3 1.3 0 2.7-.5 3.7-1.6l22.3-24.1h22.3l-33.5 32c-1.4 1.4-1.9 3.5-1.2 5.3.7 1.9 2.4 3.2 4.4 3.3l29.4 2.1.9 28.3c.1 2 1.3 3.7 3.1 4.5.6.2 1.2.4 1.9.4 1.3 0 2.6-.5 3.5-1.4l34.3-33.6v25.3l-24.9 23c-2 1.9-2.2 5-.3 7.1 1.9 2 5 2.2 7.1.3l18.1-16.7v13.8c0 2.8 2.2 5 5 5s5-2.2 5-5v-13.8l18.1 16.7c1 .9 2.2 1.3 3.4 1.3 1.3 0 2.7-.5 3.7-1.6 1.9-2 1.8-5.2-.3-7.1l-24.9-23v-23.9l32.1 33.6c1 1 2.3 1.5 3.6 1.5.6 0 1.1-.1 1.7-.3 1.9-.7 3.2-2.4 3.3-4.4l2.1-29.4 28.3-.9c2-.1 3.7-1.3 4.5-3.1.7-1.8.3-3.9-1.1-5.4l-33.3-34h26.3l22.3 24.1c1 1.1 2.3 1.6 3.7 1.6 1.2 0 2.4-.4 3.4-1.3 2-1.9 2.2-5 .3-7.1L285 204.4zM237.5 153c-.3.2-.7.4-.9.7l-13.5 13.7c-1.9 2-1.9 5.1.1 7.1 1 1 2.2 1.4 3.5 1.4 1.3 0 2.6-.5 3.6-1.5l13.3-13.6 21.3 1.5-33.5 32h-27.6V167l33.1-32.5.6 18.5zm-83.8 7.4l15.4 15.1c1 1 2.2 1.4 3.5 1.4 1.3 0 2.6-.5 3.6-1.5 1.9-2 1.9-5.1-.1-7.1l-15.4-15.1 1.4-20.1 31.8 33.3v28.1H167L134.2 161l19.5-.6zm6.4 83.9c.1-.1.2-.2.4-.3l15.6-15.8c1.9-2 1.9-5.1-.1-7.1-2-1.9-5.1-1.9-7.1.1L153.3 237l-.2.2-20.4-1.4 32.9-31.4h28.2v26.7l-33.1 32.5-.6-19.3zm84.1-6.5c-.2-.2-.3-.4-.5-.6l-13.9-13.7c-2-1.9-5.1-1.9-7.1.1-1.9 2-1.9 5.1.1 7.1l13.9 13.7.2.2-1.5 20.7-31.6-33v-27.7H231l32.2 32.8-19 .4z" fill="rgba(255, 255, 255, 1)" stroke="none"/>
</svg>
</g></svg></g></g>
<!-- /image 65313 -->

<!-- image 73424 -->
<g id="transformed-73424" data-image="73424" transform="translate(26.751712409105345, 139.75171240910535) rotate(9, 18.248287590894655, 18.24828759089466)"><g><svg version="1.1" width="36.49657518178931px" height="36.49657518178932px" viewBox="0 0 36.49657518178931 36.49657518178932"><g id="original-73424"><svg xmlns="http://www.w3.org/2000/svg" viewBox="0 0 512 512" xmlns:xlink="http://www.w3.org/1999/xlink" version="1.1" preserveAspectRatio="xMidYMid meet">
  <path d="M443.521 426.421l-.223.119a45.676 45.676 0 0 1-33.486 3.923c.927-.441 1.849-.9 2.76-1.387l.229-.123a8 8 0 1 0-7.573-14.094l-.223.12a45.7 45.7 0 0 1-35.026 3.5l-62.837-18.972 2.312-7.659a8 8 0 0 0-1.486-7.4L292.6 365.8l28.68-73.945a44.237 44.237 0 0 0-6.191-42.794l-23.871-30.921 12.281-6.585 40.356 22.674 9.348 25.586a20.08 20.08 0 0 0 18.806 13.136c.977 0 32.476-4.657 32.476-4.657l5.395 3.031 12.288 11.607a8 8 0 0 0 9.273 1.234l19.942-10.692a8 8 0 0 0 3.27-10.831L443.96 242.7a8 8 0 0 0-4.737-3.878l-7.659-2.312a8 8 0 0 0-3.331-9.041l-46.512-29.912-3.183-10.484 1.007.3a8 8 0 0 0 7.4-1.486l18.955-15.622 11.218 3.386a8 8 0 0 0 9.971-5.345L440 125.526a35.313 35.313 0 0 0-23.6-44.013l-16.631-5.021a35.313 35.313 0 0 0-44.013 23.6l-10.6 35.12-22.975-6.937a8.02 8.02 0 0 0-2.35-.342l-.007-.04a83.947 83.947 0 0 0-37.371 4.9l-32.527-19.707 2.544-3.362a8 8 0 0 0-12.759-9.655l-3.542 4.682-11.231-6.805a8 8 0 0 0-8.291 13.684l9.816 5.947-2.018 2.666A8 8 0 1 0 237.2 129.9l3.016-3.985 25.429 15.407a83.977 83.977 0 0 0-18.211 16.195l-2.39 2.848-58.209-32.7 2.432-3.443a8 8 0 1 0-13.069-9.231l-3.386 4.8-11.449-6.432a8 8 0 1 0-7.837 13.949l10.006 5.621-1.93 2.731a8 8 0 1 0 13.07 9.231l2.883-4.083 57.023 32.039-.138.165-10.082 8.313a42.085 42.085 0 0 0-15.231 30.379l-.078 1.621a41.807 41.807 0 0 0 14.134 33.493l25.869 22.868-34.172 75.821c-.013.029-7.3 23.951-7.3 23.951l-61.268-18.5a8 8 0 0 0-4.625 15.317l261.954 79.091a61.629 61.629 0 0 0 47.224-4.716l.229-.123a8 8 0 1 0-7.573-14.094zm-151.7-31.541l-45.952-13.874 4.625-15.318 28.316 8.55 14.09 17.081zm-11.409-189.1l-18.79-17.747 25.339 14.236zm48.415-.284l1.491 2.781-8.966-5.038zm43.752 51.416a4.014 4.014 0 0 1-4.352-2.583l-2.9-7.946 16.214 9.183zm58.842-3.726l5.346 9.97-7.809 4.188-5.218-4.928 3.2-10.585zM414.5 237.663l-4.623 15.309-53.577-30.1-19.67-36.685-6.686-38.854 21.8 6.583 15.517 51.105a8 8 0 0 0 3.327 4.4zm-38.819-109.949l-1.936 2.05-11.264 3.42 2.616-8.665zm4.39 43.109l-7.119-2.149-5.231-17.229 7.111-3.812 6.912 12.89a8 8 0 0 0 4.738 3.878l1.008.3zm34.012-14.8l-19.8-5.979-6.4-11.94 4.929-5.218 25.9 7.82zm-43.006-51.306a19.31 19.31 0 0 1 24.071-12.907l16.63 5.02a19.313 19.313 0 0 1 12.908 24.07l-1.354 4.487-53.61-16.187zM259.694 167.8a67.982 67.982 0 0 1 53.363-24.273l7.361 42.775a8 8 0 0 0-5.2.816l-11.539 6.182-44.437-24.966zm-34.66 46.284l.078-1.62a26.054 26.054 0 0 1 9.429-18.806l5.2-4.289 33.423 31.57 29.255 37.9a28.15 28.15 0 0 1 3.94 27.233l-27.695 71.4-22.5-6.792 28.405-63.482a8 8 0 0 0-2-9.262l-48.785-43.126a25.876 25.876 0 0 1-8.75-20.728zm36.571 66.685l5.961 5.27-26.841 59.988-7.51-2.267zm-38.708 93.3l4.626-15.318 7.658 2.313-4.625 15.318z" fill="rgba(255, 255, 255, 1)" stroke="none"/>
  <path d="M125.891 280.466l-67.2-24a8 8 0 0 0-5.382 15.068l67.2 24a8 8 0 0 0 5.382-15.068z" fill="rgba(255, 255, 255, 1)" stroke="none"/>
  <path d="M154.69 290.752a8 8 0 0 0-5.38 15.068l16 5.714a8 8 0 1 0 5.38-15.068z" fill="rgba(255, 255, 255, 1)" stroke="none"/>
  <path d="M53.309 151.534l32 11.429a8 8 0 0 0 5.382-15.063l-32-11.429a8 8 0 0 0-5.382 15.068z" fill="rgba(255, 255, 255, 1)" stroke="none"/>
  <path d="M109.309 171.534l56 20a8 8 0 0 0 5.382-15.068l-56-20a8 8 0 0 0-5.382 15.068z" fill="rgba(255, 255, 255, 1)" stroke="none"/>
  <path d="M130.69 222.18l-16-5.714a8 8 0 0 0-5.38 15.068l16 5.714a8 8 0 1 0 5.38-15.068z" fill="rgba(255, 255, 255, 1)" stroke="none"/>
  <path d="M179.2 256a8 8 0 0 0 2.691-15.536l-27.2-9.714a8 8 0 0 0-5.38 15.068l27.2 9.714a7.972 7.972 0 0 0 2.689.468z" fill="rgba(255, 255, 255, 1)" stroke="none"/>
</svg>
</g></svg></g></g>
<!-- /image 73424 -->

<!-- image 52293 -->
<g id="transformed-52293" data-image="52293" transform="translate(185, 94) rotate(0, 19.999999999999996, 20)"><g><svg version="1.1" width="39.99999999999999px" height="40px" viewBox="0 0 39.99999999999999 40"><g id="original-52293"><svg xmlns="http://www.w3.org/2000/svg" viewBox="0 0 512.003 512.003" xmlns:xlink="http://www.w3.org/1999/xlink" version="1.1" preserveAspectRatio="xMidYMid meet">
  <path d="M139.264 119.997a7.56 7.56 0 0 0-10.638-1.064c-.192.157-4.759 3.796-10.426-.284a7.563 7.563 0 0 0-10.553 1.719 7.562 7.562 0 0 0 1.72 10.553c4.846 3.489 9.714 4.743 14.106 4.743 6.47 0 11.909-2.721 14.727-5.027a7.563 7.563 0 0 0 1.064-10.64z" fill="rgba(255, 255, 255, 1)" stroke="none"/>
  <path d="M466.753 354.203a7.568 7.568 0 0 0-9.738-4.426l-98.07 36.782a7.675 7.675 0 0 0-.341-1.256l-3.2-8.59 5.335-1.988a7.564 7.564 0 0 0 4.446-9.724l-20.017-53.732a7.564 7.564 0 0 0-9.723-4.447l-.968.361-24.935-27.368c2.252-2.191 4.153-4.528 5.661-7.002 10.51-17.22 8.517-35.87-5.245-52.131.659-.635 1.313-1.28 1.963-1.933a7.562 7.562 0 0 0-.671-11.247l-2.066-1.638 45.386-22.952a7.56 7.56 0 0 0 3.334-10.159 7.559 7.559 0 0 0-10.158-3.334l-51.611 26.099-19.932-15.805 115.907-58.615 4.869 7.377a7.553 7.553 0 0 0 10.474 2.146 7.56 7.56 0 0 0 2.146-10.474l-3.905-5.918 12.442-6.292a7.56 7.56 0 0 0-6.823-13.493l-14.002 7.081-3.659-5.545a7.56 7.56 0 0 0-12.62 8.328l2.696 4.085L266.452 167.7c-.456-9.914-5.659-19.298-14.598-24.91l-41.479-26.021c4.983-5.234 7.93-12.385 7.66-20.096-.347-9.513-5.669-18.133-13.696-22.861l-.314-13.441c-.138-5.934-4.531-10.766-10.217-11.648a71.987 71.987 0 0 0-1.1-3.008 71.872 71.872 0 0 0-12.063-20.16 7.56 7.56 0 1 0-11.537 9.772 56.878 56.878 0 0 1 8.537 13.571L62.543 51.584c8.162-20.841 27.972-35.23 51.02-36.064l9.933-.363c9.263-.33 18.194 1.506 26.512 5.461a7.56 7.56 0 0 0 6.493-13.655c-10.383-4.938-21.987-7.33-33.55-6.917l-9.937.363c-31.341 1.136-57.949 22.094-66.61 51.712-5.747 1.04-10.062 6.137-9.922 12.159l.38 16.294c-7.088 5.384-11.29 13.969-10.963 23.051.542 14.911 12.844 26.674 27.648 26.672.338 0 .678-.006 1.019-.018a27.826 27.826 0 0 0 6.749-1.102c9.296 15.581 24.415 27.178 42.261 31.939l.112 1.741c.26 4.046 2.08 7.75 5.126 10.427a15.064 15.064 0 0 0 10.996 3.748l17.796-1.145a15.246 15.246 0 0 0 4.211-.882 246.87 246.87 0 0 0 14.831 25.805l-5.794 14.447c-7.36 3.508-13.092 9.524-16.244 17.109-3.385 8.144-3.393 17.118-.026 25.26a32.947 32.947 0 0 0 3.798 6.796 37.09 37.09 0 0 0-2.905 8.49c-2.69 12.747 1.423 25.624 11.002 34.446l28.728 26.48a7.53 7.53 0 0 0 5.122 2.001 7.56 7.56 0 0 0 5.126-13.119l-28.73-26.482c-5.619-5.174-8.032-12.727-6.453-20.203 1.578-7.482 6.843-13.421 14.083-15.887l14.811-5.047c.386 1.5.875 2.983 1.476 4.439 3.365 8.151 9.702 14.503 17.846 17.887a32.955 32.955 0 0 0 12.667 2.545c4.268 0 8.536-.839 12.599-2.517 8.15-3.365 14.502-9.702 17.886-17.846a33.172 33.172 0 0 0 2.219-8.109c19.997-2.002 38.518-9.166 54.565-21.05 7.334 8.679 12.308 20.675 3.875 34.491-1.684 2.762-4.351 5.366-7.935 7.743-7.071 4.706-17.527 8.452-31.076 11.134-30.003 5.929-64.412 4.358-64.757 4.341a7.561 7.561 0 0 0-5.952 12.643l58.91 64.638-14.019 5.222-30.007-27.652a7.561 7.561 0 0 0-10.248 11.119l28.206 25.993a7.546 7.546 0 0 0 .47 2.922l2.92 7.84-1.077.401c-8.716 3.248-15.646 9.695-19.514 18.154-3.868 8.459-4.209 17.919-.962 26.635l2.411 6.472-.901.338a.764.764 0 0 1-.614-.022.771.771 0 0 1-.418-.451 7.56 7.56 0 0 0-14.168 5.278 15.814 15.814 0 0 0 8.301 8.924 15.85 15.85 0 0 0 6.608 1.449c1.88 0 3.767-.337 5.586-1.015l20.207-7.579 3.106 8.335c.169.455.388.873.63 1.273l-100.64 37.746a.776.776 0 0 1-.614-.022.774.774 0 0 1-.418-.451 7.56 7.56 0 0 0-14.168 5.278 15.823 15.823 0 0 0 8.301 8.924c2.11.965 4.355 1.45 6.609 1.45 1.88 0 3.767-.338 5.586-1.015l248.267-93.114a7.56 7.56 0 0 0-5.309-14.157l-98.07 36.782a7.576 7.576 0 0 0-.341-1.256l-3.147-8.446 178.269-66.861a7.558 7.558 0 0 0 4.422-9.731zM202.895 96.832c.009.129.024.255.029.384.227 6.472-4.537 12.07-10.894 12.9-.113-.001-.226-.012-.34-.012l-.044.001a26.512 26.512 0 0 0 11.249-13.273zM54.014 115.17c-6.594.244-12.202-4.689-12.924-11.147a26.503 26.503 0 0 0 13.784 10.972l.035.111a13.8 13.8 0 0 1-.895.064zm-1.8-24.834l-.544-23.374 136.478-3.183.009.001.026-.002.797-.018.545 23.375c.145 6.194-4.777 11.351-10.972 11.495l-24.711.577a11.286 11.286 0 0 1-7.309-2.481 11.272 11.272 0 0 1-3.984-6.616 12.035 12.035 0 0 0-12.143-9.779l-19.457.454a12.065 12.065 0 0 0-7.72 3.032 12.093 12.093 0 0 0-3.952 7.302 11.21 11.21 0 0 1-10.857 9.613l-24.71.576c-6.19.152-11.352-4.777-11.496-10.972zm84.42 70.463l-17.859 1.089-.463-8.108 17.86-1.09.483 8.106s-.006.002-.021.003zm9.502-19.507a15.067 15.067 0 0 0-10.996-3.748l-17.796 1.145a15.076 15.076 0 0 0-10.426 5.126 15.193 15.193 0 0 0-1.531 2.093 55.273 55.273 0 0 1-33.818-29.659l17.204-.401a26.282 26.282 0 0 0 24.969-20.005l14.584-.34a26.417 26.417 0 0 0 8.726 12.999 26.408 26.408 0 0 0 17.144 5.819l18.661-.435a55.272 55.272 0 0 1-4.519 8.734c-.171.257-.349.509-.513.773-.074.118-.139.24-.21.359-5.159 7.719-12.224 14.119-20.546 18.444-.299-.31-.605-.616-.933-.904zm32.934 97.863l-19.594 6.678a36.876 36.876 0 0 0-10.946 5.943 17.753 17.753 0 0 1 .04-13.61c1.834-4.411 5.277-7.845 9.722-9.68.326-.136.651-.255.905-.349 7.89-2.769 16.585.322 21.004 7.338a33.31 33.31 0 0 0-1.131 3.68zm-7.601-43.377a6.944 6.944 0 0 0-.155-.226c-7.577-11.163-14.101-22.8-19.521-34.833.001-.319.007-.635-.013-.955l-.19-2.936a69.925 69.925 0 0 0 13.89-8.665c2.238 5.894 6.358 10.824 11.866 14.095l33.585 19.939-14.013 34.959a33.054 33.054 0 0 0-5.943 3.649c-7.117-8.034-13.628-16.387-19.506-25.027zm56.205 58.028a17.776 17.776 0 0 1-9.693 9.672 17.774 17.774 0 0 1-13.694-.016 17.777 17.777 0 0 1-9.672-9.694 17.763 17.763 0 0 1 .016-13.693 17.774 17.774 0 0 1 9.694-9.672 17.867 17.867 0 0 1 6.827-1.364c2.326 0 4.653.46 6.867 1.379a17.744 17.744 0 0 1 8.238 6.955c.135.56.328 1.115.6 1.651.263.521.592.985.95 1.415 1.691 4.33 1.657 9.061-.133 13.367zm3.219-33.341a33.252 33.252 0 0 0-7.073-4.009 33.123 33.123 0 0 0-9.377-2.378l12.932-32.263a7.562 7.562 0 0 0-3.158-9.314l-39.151-23.245a12.816 12.816 0 0 1-5.947-8.03 12.815 12.815 0 0 1 1.403-9.588c.129-.197.252-.398.379-.597 2.401-3.641 6.398-5.816 10.79-5.816 2.419 0 4.792.683 6.849 1.97l45.277 28.404c6.721 4.216 9.344 12.582 6.236 19.885l-19.16 44.981zm30.558-33.155l19.826 15.722-33.804 17.095 13.978-32.817zm-10.237 47.867l43.109-21.8.651.516c-12.866 11.078-27.522 18.191-43.76 21.284zm45.866 53.412l22.124 24.283-14.119 5.26-24.851-22.908c6.386-1.9 12.013-4.116 16.846-6.635zM251.9 453.865a7.563 7.563 0 0 0-.359-1.339l-3.117-8.367 21.475-8.054 3.134 8.414c.158.426.359.823.583 1.202l-21.716 8.144zm-15.91-21.463l-.011.003-.01.005-12.243 4.561-2.3-6.174c-3.794-10.183 1.402-21.551 11.584-25.344l8.162-3.04a7.559 7.559 0 0 0 4.445-9.723l-2.92-7.84 19.541-7.28 14.738 39.564-40.986 15.268zm43.629-76.903a34.61 34.61 0 0 0-3.05 17.227l-2.802-7.522a7.567 7.567 0 0 0-3.941-4.237 7.515 7.515 0 0 0-2.551-.652l-51.822-56.861c12.496-.185 29.975-1.085 46.96-4.095l36.242 33.408 1.556 4.178-1.076.4c-8.717 3.248-15.648 9.695-19.516 18.154zm11.568 56.472l-4.859-13.042a7.57 7.57 0 0 0 4.354 1.388c.877 0 1.768-.153 2.638-.478l12.254-4.565 3.2 8.591c.169.454.388.873.63 1.273l-18.217 6.833zm32.116-12.044a7.669 7.669 0 0 0-.358-1.339l-3.2-8.591 21.492-8.007 3.199 8.59c.158.426.359.823.583 1.202l-21.716 8.145zm19.748-34.748a.126.126 0 0 1-.01.003l-.01.004-47.906 17.846-2.3-6.174a19.573 19.573 0 0 1 .544-15.071 19.573 19.573 0 0 1 11.042-10.272l8.161-3.04a7.56 7.56 0 0 0 4.445-9.723l-2.92-7.841 19.541-7.28 14.739 39.564-5.326 1.984z" fill="rgba(255, 255, 255, 1)" stroke="none"/>
  <path d="M485.307 108.325a7.558 7.558 0 0 0-10.158-3.334l-14.002 7.081-3.66-5.545a7.56 7.56 0 0 0-12.62 8.329l2.696 4.085-73.921 37.382a7.56 7.56 0 0 0 6.824 13.494l75.481-38.171 4.869 7.378a7.556 7.556 0 0 0 10.474 2.146 7.56 7.56 0 0 0 2.146-10.474l-3.905-5.917 12.442-6.292a7.565 7.565 0 0 0 3.334-10.162z" fill="rgba(255, 255, 255, 1)" stroke="none"/>
</svg>
</g></svg></g></g>
<!-- /image 52293 -->
</defs><rect x="0" y="0" width="248" height="256" fill="rgba(46, 5, 246, 0)"></rect><use xlink:href="#transformed-22235" transform="translate(-248, -256)"></use><use xlink:href="#transformed-22235" transform="translate(0, -256)"></use><use xlink:href="#transformed-22235" transform="translate(248, -256)"></use><use xlink:href="#transformed-22235" transform="translate(-248, 0)"></use><use xlink:href="#transformed-22235" transform="translate(0, 0)"></use><use xlink:href="#transformed-22235" transform="translate(248, 0)"></use><use xlink:href="#transformed-22235" transform="translate(-248, 256)"></use><use xlink:href="#transformed-22235" transform="translate(0, 256)"></use><use xlink:href="#transformed-22235" transform="translate(248, 256)"></use><use xlink:href="#transformed-82153" transform="translate(-248, -256)"></use><use xlink:href="#transformed-82153" transform="translate(0, -256)"></use><use xlink:href="#transformed-82153" transform="translate(248, -256)"></use><use xlink:href="#transformed-82153" transform="translate(-248, 0)"></use><use xlink:href="#transformed-82153" transform="translate(0, 0)"></use><use xlink:href="#transformed-82153" transform="translate(248, 0)"></use><use xlink:href="#transformed-82153" transform="translate(-248, 256)"></use><use xlink:href="#transformed-82153" transform="translate(0, 256)"></use><use xlink:href="#transformed-82153" transform="translate(248, 256)"></use><use xlink:href="#transformed-98864" transform="translate(-248, -256)"></use><use xlink:href="#transformed-98864" transform="translate(0, -256)"></use><use xlink:href="#transformed-98864" transform="translate(248, -256)"></use><use xlink:href="#transformed-98864" transform="translate(-248, 0)"></use><use xlink:href="#transformed-98864" transform="translate(0, 0)"></use><use xlink:href="#transformed-98864" transform="translate(248, 0)"></use><use xlink:href="#transformed-98864" transform="translate(-248, 256)"></use><use xlink:href="#transformed-98864" transform="translate(0, 256)"></use><use xlink:href="#transformed-98864" transform="translate(248, 256)"></use><use xlink:href="#transformed-24605" transform="translate(-248, -256)"></use><use xlink:href="#transformed-24605" transform="translate(0, -256)"></use><use xlink:href="#transformed-24605" transform="translate(248, -256)"></use><use xlink:href="#transformed-24605" transform="translate(-248, 0)"></use><use xlink:href="#transformed-24605" transform="translate(0, 0)"></use><use xlink:href="#transformed-24605" transform="translate(248, 0)"></use><use xlink:href="#transformed-24605" transform="translate(-248, 256)"></use><use xlink:href="#transformed-24605" transform="translate(0, 256)"></use><use xlink:href="#transformed-24605" transform="translate(248, 256)"></use><use xlink:href="#transformed-44008" transform="translate(-248, -256)"></use><use xlink:href="#transformed-44008" transform="translate(0, -256)"></use><use xlink:href="#transformed-44008" transform="translate(248, -256)"></use><use xlink:href="#transformed-44008" transform="translate(-248, 0)"></use><use xlink:href="#transformed-44008" transform="translate(0, 0)"></use><use xlink:href="#transformed-44008" transform="translate(248, 0)"></use><use xlink:href="#transformed-44008" transform="translate(-248, 256)"></use><use xlink:href="#transformed-44008" transform="translate(0, 256)"></use><use xlink:href="#transformed-44008" transform="translate(248, 256)"></use><use xlink:href="#transformed-65313" transform="translate(-248, -256)"></use><use xlink:href="#transformed-65313" transform="translate(0, -256)"></use><use xlink:href="#transformed-65313" transform="translate(248, -256)"></use><use xlink:href="#transformed-65313" transform="translate(-248, 0)"></use><use xlink:href="#transformed-65313" transform="translate(0, 0)"></use><use xlink:href="#transformed-65313" transform="translate(248, 0)"></use><use xlink:href="#transformed-65313" transform="translate(-248, 256)"></use><use xlink:href="#transformed-65313" transform="translate(0, 256)"></use><use xlink:href="#transformed-65313" transform="translate(248, 256)"></use><use xlink:href="#transformed-73424" transform="translate(-248, -256)"></use><use xlink:href="#transformed-73424" transform="translate(0, -256)"></use><use xlink:href="#transformed-73424" transform="translate(248, -256)"></use><use xlink:href="#transformed-73424" transform="translate(-248, 0)"></use><use xlink:href="#transformed-73424" transform="translate(0, 0)"></use><use xlink:href="#transformed-73424" transform="translate(248, 0)"></use><use xlink:href="#transformed-73424" transform="translate(-248, 256)"></use><use xlink:href="#transformed-73424" transform="translate(0, 256)"></use><use xlink:href="#transformed-73424" transform="translate(248, 256)"></use><use xlink:href="#transformed-52293" transform="translate(-248, -256)"></use><use xlink:href="#transformed-52293" transform="translate(0, -256)"></use><use xlink:href="#transformed-52293" transform="translate(248, -256)"></use><use xlink:href="#transformed-52293" transform="translate(-248, 0)"></use><use xlink:href="#transformed-52293" transform="translate(0, 0)"></use><use xlink:href="#transformed-52293" transform="translate(248, 0)"></use><use xlink:href="#transformed-52293" transform="translate(-248, 256)"></use><use xlink:href="#transformed-52293" transform="translate(0, 256)"></use><use xlink:href="#transformed-52293" transform="translate(248, 256)"></use></svg>