<svg height="512pt" viewBox="0 0 512.01561 512" width="512pt" xmlns="http://www.w3.org/2000/svg"><path d="m235.945312 245.773438c-3.597656.027343-6.824218-2.207032-8.066406-5.585938-1.246094-3.375-.234375-7.167969 2.519532-9.484375l267.53125-228.648437c3.585937-3.0625 8.976562-2.640626 12.039062.945312 3.0625 3.589844 2.640625 8.980469-.945312 12.042969l-267.53125 228.648437c-1.539063 1.335938-3.507813 2.074219-5.546876 2.082032zm0 0" fill="#919d9e"/><path d="m153.242188 316.234375c-3.574219 0-6.773438-2.226563-8.007813-5.582031-1.238281-3.355469-.25-7.125 2.46875-9.445313l48.460937-41.394531c3.585938-3.0625 8.976563-2.640625 12.039063.945312 3.066406 3.589844 2.640625 8.980469-.945313 12.042969l-48.46875 41.386719c-1.546874 1.320312-3.511718 2.046875-5.546874 2.046875zm0 0" fill="#919d9e"/><path d="m284.585938 205.496094c-12.945313-5.214844-27.722657.445312-33.875 12.972656l-5.976563 11.605469-8.191406-29.097657c-3.863281-13.59375-14.171875-24.414062-27.5625-28.929687l-21.757813-7.253906c-19.511718-6.523438-40.894531 1.800781-50.859375 19.796875l-45.738281 82.433594c-12.25 22.035156-9.257812 49.402343 7.464844 68.265624l-19.582032-17.167968c-7.105468-6.003906-17.707031-5.21875-23.84375 1.769531-6.136718 6.988281-5.546874 17.605469 1.324219 23.871094l46.734375 41.054687c5.761719 5.09375 14.222656 5.691406 20.640625 1.457032 6.421875-4.234376 9.203125-12.246094 6.789063-19.546876l15.929687 15.359376c3.304688 3.1875 5.1875 7.574218 5.21875 12.167968.035157 4.59375-1.785156 9.003906-5.046875 12.238282l-36.335937 36.285156-17.066407 17.066406c-9.703124 10.042969-9.5625 26.011719.3125 35.886719 9.875 9.871093 25.839844 10.011719 35.886719.308593l17.167969-16.960937 49.28125-48.8125c9.96875-9.828125 15.472656-23.3125 15.230469-37.308594-.242188-13.996093-6.207031-27.285156-16.511719-36.761719l-35.753906-32.851562c-5.988282-5.542969-7.238282-14.539062-2.988282-21.503906l28.332032-46.335938c1.777344-2.863281 5.074218-4.410156 8.414062-3.949218 3.339844.460937 6.09375 2.84375 7.03125 6.082031l7.253906 25.769531c2.445313 8.730469 8.265626 16.128906 16.171876 20.566406 7.910156 4.433594 17.257812 5.539063 25.980468 3.070313l2.050782-.597657c9.144531-2.550781 16.8125-8.796874 21.160156-17.234374l25.003906-48.640626c3.214844-6.25 3.71875-13.546874 1.398438-20.179687-2.324219-6.632813-7.273438-12.015625-13.6875-14.894531zm0 0" fill="#668892"/><path d="m162.132812 110.949219h.769532c-3.523438 20.117187 5.242187 40.40625 22.3125 51.621093 17.066406 11.21875 39.167968 11.21875 56.238281 0 17.066406-11.214843 25.835937-31.503906 22.3125-51.621093h.769531c4.710938 0 8.53125-3.820313 8.53125-8.535157v-17.066406c0-4.710937-3.820312-8.53125-8.53125-8.53125 0-22.667968-13.398437-45.296875-34.238281-50.195312 0-.339844.101563-.664063.101563-1.007813 0-9.425781-7.640626-17.066406-17.066407-17.066406s-17.066406 7.640625-17.066406 17.066406c0 .34375.085937.667969.101563 1.007813-20.835938 4.898437-34.234376 27.527344-34.234376 50.195312-4.710937 0-8.53125 3.820313-8.53125 8.53125v17.066406c0 4.714844 3.820313 8.535157 8.53125 8.535157zm39.476563-72.988281c.109375.113281.246094.199218.367187.308593-.121093-.109375-.257812-.195312-.367187-.308593zm23.039063.316406c.121093-.109375.257812-.203125.375-.316406-.085938.113281-.222657.207031-.339844.316406zm-7.902344 4.0625c-2.222656.457031-4.515625.457031-6.742188 0 2.226563.457031 4.519532.457031 6.742188 0zm5.914062-2.429688c-.289062.1875-.613281.324219-.914062.492188.257812-.167969.582031-.28125.871094-.492188zm-2.796875 1.484375c-.554687.21875-1.144531.355469-1.707031.527344.519531-.171875 1.152344-.308594 1.664062-.527344zm-15.773437-1.484375c.292968.1875.617187.324219.914062.492188-.339844-.167969-.664062-.28125-.953125-.492188zm2.800781 1.484375c.554687.21875 1.144531.355469 1.707031.527344-.605468-.171875-1.195312-.308594-1.75-.527344zm0 0" fill="#668892"/><path d="m296.875 240.570312-25.003906 48.640626c-4.347656 8.4375-12.015625 14.683593-21.160156 17.234374l-2.050782.597657c-8.722656 2.46875-18.070312 1.363281-25.980468-3.070313-7.90625-4.4375-13.726563-11.835937-16.171876-20.566406l-7.253906-25.769531c-.9375-3.238281-3.691406-5.621094-7.03125-6.082031-3.339844-.460938-6.636718 1.085937-8.414062 3.949218l-28.332032 46.335938c-45.910156-5.972656-64.851562-34.816406-64.851562-34.816406l45.738281-82.433594c9.964844-17.996094 31.347657-26.320313 50.859375-19.796875l21.757813 7.253906c13.390625 4.515625 23.699219 15.335937 27.5625 28.929687l8.191406 29.097657 5.976563-11.605469c6.152343-12.527344 20.929687-18.1875 33.875-12.972656 6.414062 2.878906 11.363281 8.261718 13.6875 14.894531 2.320312 6.632813 1.816406 13.929687-1.398438 20.179687zm0 0" fill="#ff6c77"/><path d="m195.5 430.265625-66.476562 65.707031c-10.085938 9.398438-25.804688 9.121094-35.554688-.628906-9.746094-9.746094-10.023438-25.464844-.625-35.554688l53.417969-53.332031c3.261719-3.234375 5.082031-7.644531 5.050781-12.238281-.035156-4.59375-1.914062-8.980469-5.222656-12.167969l-44.714844-43.007812c-19.550781-18.761719-23.972656-48.363281-10.75-72.019531 0 0 18.941406 28.84375 64.851562 34.816406-4.25 6.964844-3 15.960937 2.988282 21.503906l35.753906 32.851562c10.304688 9.476563 16.269531 22.765626 16.511719 36.761719.242187 13.996094-5.261719 27.480469-15.230469 37.308594zm0 0" fill="#445c71"/><path d="m78.519531 318.121094 46.738281 41.054687c7.082032 6.21875 7.78125 17.003907 1.558594 24.085938-6.21875 7.078125-17.003906 7.777343-24.085937 1.558593l-46.734375-41.054687c-7.082032-6.222656-7.78125-17.003906-1.5625-24.085937 6.222656-7.082032 17.003906-7.78125 24.085937-1.558594zm0 0" fill="#919d9e"/><path d="m162.132812 76.816406h102.402344c4.710938 0 8.53125 3.820313 8.53125 8.53125v17.066406c0 4.714844-3.820312 8.535157-8.53125 8.535157h-102.402344c-4.710937 0-8.53125-3.820313-8.53125-8.535157v-17.066406c0-4.710937 3.820313-8.53125 8.53125-8.53125zm0 0" fill="#e76573"/><path d="m230.398438 25.613281c0 9.425781-7.640626 17.066407-17.066407 17.066407s-17.066406-7.640626-17.066406-17.066407 7.640625-17.066406 17.066406-17.066406 17.066407 7.640625 17.066407 17.066406zm0 0" fill="#ff6c77"/><path d="m162.902344 110.949219c-3.523438 20.117187 5.242187 40.40625 22.3125 51.621093 17.066406 11.21875 39.167968 11.21875 56.238281 0 17.066406-11.214843 25.835937-31.503906 22.3125-51.621093zm0 0" fill="#fedebb"/><path d="m230.296875 26.621094c-.496094 9.007812-7.941406 16.058594-16.964844 16.058594-9.019531 0-16.46875-7.050782-16.964843-16.058594-20.835938 4.898437-34.234376 27.527344-34.234376 50.195312h102.402344c0-22.667968-13.398437-45.296875-34.238281-50.195312zm0 0" fill="#fe9189"/><path d="m92.835938 459.78125c-9.703126 10.046875-9.566407 26.011719.308593 35.886719s25.84375 10.015625 35.886719.3125l17.171875-16.964844-36.285156-36.28125zm0 0" fill="#668892"/><path d="m375.464844 512.015625h-366.929688c-4.714844 0-8.535156-3.820313-8.535156-8.535156 0-4.710938 3.820312-8.53125 8.535156-8.53125h366.929688c14.140625 0 25.601562-11.460938 25.601562-25.601563 0-4.710937 3.820313-8.53125 8.535156-8.53125 4.710938 0 8.53125 3.820313 8.53125 8.53125-.027343 23.554688-19.113281 42.640625-42.667968 42.667969zm0 0" fill="#394f63"/></svg>