<svg height="512" viewBox="0 0 512 512" width="512" xmlns="http://www.w3.org/2000/svg"><g id="flat"><path d="m336 104h-32l-35.6-35.6a21.337 21.337 0 0 0 -26.967-2.636 21.34 21.34 0 0 1 -19.214 2.313c-18.213-6.665-54.219-20.077-54.219-20.077l32-24 22.458 11.229a21.339 21.339 0 0 0 19.084 0l7.926-3.963a21.336 21.336 0 0 1 25.4 4.81z" fill="#5e8569"/><path d="m192.238 408 24 8 57.537-136.649a28 28 0 0 0 -3.942-28.357l-53.595-66.994-106.745-56 113.373 144z" fill="#5e8569"/><path d="m184.238 400-4.5 6.748a68.482 68.482 0 0 0 -11.5 37.986v11.266l.416 6h103.584v-16.377a30 30 0 0 0 -20.513-28.461l-27.487-9.162z" fill="#3775a4"/><path d="m437.53 137.38-5.29 6.62v.01l-8 47.99-24-16a69.637 69.637 0 0 1 -52.29 10.34l-11.95-2.34v-80l28.24-28 2.23-2.23c.11-.11.21-.21.32-.31a47.756 47.756 0 0 1 70.74 63.92z" fill="#a8a8a8"/><path d="m392.24 104-24 24-25.45-30.55 23.68-23.68c.11-.11.21-.21.32-.31z" fill="#f3af3e"/><path d="m432.24 144-32 32-20.8-15.6a28.009 28.009 0 0 1 -11.2-22.4v-10l24-24z" fill="#b8eaee"/><path d="m432.13 143.89-26.21 26.2-20.8-15.6a28.009 28.009 0 0 1 -11.2-22.4v-9.77l18.32-18.32z" fill="#aedee2"/><path d="m109.493 128a56.442 56.442 0 0 0 -9.945 24.834 56.5 56.5 0 0 0 10.731 41.887l33.959 45.279 40 48-32 112 .052 4.01 39.948 3.99c0-6.681 33.482-102.647 44.518-134.1a27.985 27.985 0 0 0 -.424-19.667l-28.094-70.233z" fill="#6b9777"/><path d="m208.238 184h127.762v-80l-50.842-9.578a276.032 276.032 0 0 0 -149.958 13.672 56.464 56.464 0 0 0 -25.707 19.906z" fill="#e4e4e2"/><path d="m152.238 400-4.5 6.748a68.482 68.482 0 0 0 -11.5 37.986v11.266l.659 5 103.42.286-.079-5.286v-10.377a30 30 0 0 0 -20.513-28.461l-27.487-9.162z" fill="#3f85bb"/><circle cx="400" cy="48" fill="#3775a4" r="24"/><path d="m437.53 137.38-5.29 6.62-68-68 2.23-2.23c.11-.11.21-.21.32-.31a47.756 47.756 0 0 1 70.74 63.92z" fill="#428dc5"/><path d="m31.994 64a8 8 0 0 1 -7.149-11.58l16-32a8 8 0 0 1 14.31 7.156l-16 32a8 8 0 0 1 -7.161 4.424z" fill="#e08122"/><path d="m416 488h-376a16 16 0 0 1 -16-16 16 16 0 0 1 16-16h376a40 40 0 0 0 40-40 16 16 0 0 1 16-16 16 16 0 0 1 16 16 72 72 0 0 1 -72 72z" fill="#3775a4"/><g fill="#b8eaee"><path d="m128 368h-16a8 8 0 0 1 0-16h16a8 8 0 0 1 0 16z"/><path d="m80 368h-56a8 8 0 0 1 0-16h56a8 8 0 0 1 0 16z"/><path d="m136 312h-48a8 8 0 0 1 0-16h48a8 8 0 0 1 0 16z"/><path d="m56 312h-32a8 8 0 0 1 0-16h32a8 8 0 0 1 0 16z"/><path d="m104 264h-8a8 8 0 0 1 0-16h8a8 8 0 0 1 0 16z"/><path d="m64 264h-40a8 8 0 0 1 0-16h40a8 8 0 0 1 0 16z"/></g><path d="m365.91 240a7.972 7.972 0 0 1 -4.032-1.1l-341.917-200a8 8 0 0 1 8.078-13.8l341.918 200a8 8 0 0 1 -4.047 14.9z" fill="#fd9226"/><path d="m293.119 221.7-12.881 10.3h47.762v32h-79.246a26.724 26.724 0 0 1 -23.9-14.772 26.724 26.724 0 0 1 5.006-30.848l26.261-26.261z" fill="#cbcbcb"/><path d="m328 232h16.238l16-8 16 8h16v22a18 18 0 0 1 -18 18h-22l-16-8h-8.238z" fill="#8f563b"/><path d="m304 96 32 8v80h-32z" fill="#6b9777"/><path d="m256.119 192.119 8.119-8.119v-20a28 28 0 0 1 28-28 28 28 0 0 1 28 28v13.891a46 46 0 0 1 -17.264 35.92l-9.855 7.884z" fill="#5e8569"/></g></svg>