<svg height="512" viewBox="0 0 512 512" width="512" xmlns="http://www.w3.org/2000/svg"><g id="filled_outline" data-name="filled outline"><path d="m336 104h-32l-35.6-35.6a21.337 21.337 0 0 0 -26.967-2.636 21.34 21.34 0 0 1 -19.214 2.313c-18.213-6.665-54.219-20.077-54.219-20.077l32-24 22.458 11.229a21.339 21.339 0 0 0 19.084 0l7.926-3.963a21.336 21.336 0 0 1 25.4 4.81z" fill="#5e8569"/><path d="m192.238 408 24 8 57.537-136.649a28 28 0 0 0 -3.942-28.357l-53.595-66.994-106.745-56 113.373 144z" fill="#5e8569"/><path d="m184.238 400-4.5 6.748a68.482 68.482 0 0 0 -11.5 37.986v11.266l.416 6h103.584v-16.377a30 30 0 0 0 -20.513-28.461l-27.487-9.162z" fill="#3775a4"/><path d="m437.53 137.38-5.29 6.62v.01l-8 47.99-24-16a69.637 69.637 0 0 1 -52.29 10.34l-11.95-2.34v-80l28.24-28 2.23-2.23c.11-.11.21-.21.32-.31a47.756 47.756 0 0 1 70.74 63.92z" fill="#a8a8a8"/><path d="m392.24 104-24 24-25.45-30.55 23.68-23.68c.11-.11.21-.21.32-.31z" fill="#f3af3e"/><path d="m432.24 144-32 32-20.8-15.6a28.009 28.009 0 0 1 -11.2-22.4v-10l24-24z" fill="#b8eaee"/><path d="m432.13 143.89-26.21 26.2-20.8-15.6a28.009 28.009 0 0 1 -11.2-22.4v-9.77l18.32-18.32z" fill="#aedee2"/><path d="m109.493 128a56.442 56.442 0 0 0 -9.945 24.834 56.5 56.5 0 0 0 10.731 41.887l33.959 45.279 40 48-32 112 .052 4.01 39.948 3.99c0-6.681 33.482-102.647 44.518-134.1a27.985 27.985 0 0 0 -.424-19.667l-28.094-70.233z" fill="#6b9777"/><path d="m208.238 184h127.762v-80l-50.842-9.578a276.032 276.032 0 0 0 -149.958 13.672 56.464 56.464 0 0 0 -25.707 19.906z" fill="#e4e4e2"/><path d="m152.238 400-4.5 6.748a68.482 68.482 0 0 0 -11.5 37.986v11.266l.659 5 103.42.286-.079-5.286v-10.377a30 30 0 0 0 -20.513-28.461l-27.487-9.162z" fill="#3f85bb"/><circle cx="400" cy="48" fill="#3775a4" r="24"/><path d="m437.53 137.38-5.29 6.62-68-68 2.23-2.23c.11-.11.21-.21.32-.31a47.756 47.756 0 0 1 70.74 63.92z" fill="#428dc5"/><path d="m31.994 64a8 8 0 0 1 -7.149-11.58l16-32a8 8 0 0 1 14.31 7.156l-16 32a8 8 0 0 1 -7.161 4.424z" fill="#e08122"/><path d="m416 488h-376a16 16 0 0 1 -16-16 16 16 0 0 1 16-16h376a40 40 0 0 0 40-40 16 16 0 0 1 16-16 16 16 0 0 1 16 16 72 72 0 0 1 -72 72z" fill="#3775a4"/><g fill="#b8eaee"><path d="m128 368h-16a8 8 0 0 1 0-16h16a8 8 0 0 1 0 16z"/><path d="m80 368h-56a8 8 0 0 1 0-16h56a8 8 0 0 1 0 16z"/><path d="m136 312h-48a8 8 0 0 1 0-16h48a8 8 0 0 1 0 16z"/><path d="m56 312h-32a8 8 0 0 1 0-16h32a8 8 0 0 1 0 16z"/><path d="m104 264h-8a8 8 0 0 1 0-16h8a8 8 0 0 1 0 16z"/><path d="m64 264h-40a8 8 0 0 1 0-16h40a8 8 0 0 1 0 16z"/></g><path d="m365.91 240a7.972 7.972 0 0 1 -4.032-1.1l-341.917-200a8 8 0 0 1 8.078-13.8l341.918 200a8 8 0 0 1 -4.047 14.9z" fill="#fd9226"/><path d="m293.119 221.7-12.881 10.3h47.762v32h-79.246a26.724 26.724 0 0 1 -23.9-14.772 26.724 26.724 0 0 1 5.006-30.848l26.261-26.261z" fill="#cbcbcb"/><path d="m328 232h16.238l16-8 16 8h16v22a18 18 0 0 1 -18 18h-22l-16-8h-8.238z" fill="#8f563b"/><path d="m304 96 32 8v80h-32z" fill="#6b9777"/><path d="m256.119 192.119 8.119-8.119v-20a28 28 0 0 1 28-28 28 28 0 0 1 28 28v13.891a46 46 0 0 1 -17.264 35.92l-9.855 7.884z" fill="#5e8569"/><path d="m472 392a24.028 24.028 0 0 0 -24 24 32.036 32.036 0 0 1 -32 32h-135.76v-2.38a37.964 37.964 0 0 0 -25.981-36.05l-23.359-7.782 50.241-119.328a35.975 35.975 0 0 0 2.641-10.46h50.568l14.311 7.155a7.987 7.987 0 0 0 3.577.845h22a26.029 26.029 0 0 0 26-26v-22a8 8 0 0 0 -8-8h-14.111l-14.311-7.155a8 8 0 0 0 -7.155 0l-.436.218-31.988-18.714a53.636 53.636 0 0 0 2.128-6.349h9.081l10.939 2.188a77.071 77.071 0 0 0 53.687-8.684l19.728 13.152a8 8 0 0 0 12.328-5.341l7.658-45.944 3.994-4.993a55.718 55.718 0 0 0 -14.18-82.228 32 32 0 1 0 -59.093.236 55.678 55.678 0 0 0 -9.377 7.429c-.022.022-.047.043-.069.065-.081.081-.166.155-.247.236l-24.392 24.39-55.6-61.781a29.413 29.413 0 0 0 -34.924-6.614l-7.927 3.963a13.4 13.4 0 0 1 -11.928 0l-22.465-11.229a8 8 0 0 0 -8.378.755l-32 24a8 8 0 0 0 2.008 13.9c.36.134 36.235 13.5 54.262 20.092a29.427 29.427 0 0 0 26.418-3.18 13.366 13.366 0 0 1 16.855 1.648l10.3 10.3a284.951 284.951 0 0 0 -125.2 10.82l-97.863-57.251 5.175-10.351a8 8 0 0 0 -14.31-7.156l-4.706 9.411-8.099-4.733a8 8 0 0 0 -8.08 13.81l9.009 5.27-4.124 8.247a8 8 0 1 0 14.31 7.156l3.654-7.307 85.548 50.041a64.32 64.32 0 0 0 -25.373 21.033v.007a64.5 64.5 0 0 0 .9 76.164l71.506 90.35-30.498 106.729-3.809 5.714a76.239 76.239 0 0 0 -12.845 42.423v3.263h-88.238a24 24 0 0 0 0 48h376a80.091 80.091 0 0 0 80-80 24.028 24.028 0 0 0 -24-24zm-207.76 53.62v2.38h-16v-2.377a37.939 37.939 0 0 0 -8.573-24.051l9.532 3.177a21.979 21.979 0 0 1 15.041 20.871zm2.16-169.374-53.792 127.772-.017.041-.846 2.01-10.038-3.346c7.127-24.77 34.314-102.566 42.6-126.171a35.685 35.685 0 0 0 1.283-4.71c1.045.093 2.1.158 3.163.158h18.9a19.993 19.993 0 0 1 -1.253 4.246zm45.6-164.246h16v47.916a36.033 36.033 0 0 0 -16-25.986zm54.247-26.695 15.17 18.2-12.639 12.639-15.167-18.203zm33.241 80.132-15.25-11.437a20.1 20.1 0 0 1 -8-16v-6.685l16-16 28.687 28.685zm-87.25-1.437v13.891a37.853 37.853 0 0 1 -5.3 19.365c-.037.06-.079.114-.114.175s-.056.111-.087.166a38.072 38.072 0 0 1 -8.761 9.967l-4.858 3.886-25.01-20.008 1.763-1.762a7.973 7.973 0 0 0 2.369-5.68c0-.013 0-.026 0-.039v-19.961a20 20 0 0 1 40 0zm-79.45 40.137-8.832-12.137h20.969zm2.727 19.9 21.211-21.211 23.587 18.874-5.072 4.058a8 8 0 0 0 5 14.247h39.759v16s-76.278-.52-78.54-1.472c-.126-.056-.252-.109-.38-.159a18.741 18.741 0 0 1 -5.565-30.332zm137.146 15.118a7.987 7.987 0 0 0 3.577.845h8v14a10.011 10.011 0 0 1 -10 10h-20.111l-14.311-7.155a7.994 7.994 0 0 0 -3.578-.845h-.238v-16h8.238a7.994 7.994 0 0 0 3.578-.845l12.422-6.211zm-36.261-15.155h-32.4q0-.368-.035-.733l4.012-3.209a54.464 54.464 0 0 0 8.059-7.973zm13.126-45.5-5.283-1.057v-65.753l16 19.2v7.11a36.172 36.172 0 0 0 14.4 28.8l10.811 8.109a61.177 61.177 0 0 1 -35.931 3.591zm68.858-.019-5.586-3.723 7.448-7.449zm13.186-46.465-1.652-1.651-.018-.021-31.746-31.744-20.062-24.075a39.755 39.755 0 0 1 53.475 57.49zm-47.57-84.016a16 16 0 1 1 30.9 5.775 56.152 56.152 0 0 0 -29.762.115 15.955 15.955 0 0 1 -1.138-5.89zm-147.021 11.118a13.385 13.385 0 0 1 -12.011 1.446c-10.885-3.983-28.308-10.444-40.447-14.955l16.324-12.242 18.035 9.017a29.475 29.475 0 0 0 26.24 0l7.926-3.963a13.372 13.372 0 0 1 15.876 3.007l49.115 54.572h-10.723l-5.127-5.127-.013-.013-28.117-28.117a29.4 29.4 0 0 0 -37.078-3.625zm46.705 43.165 8.969 1.684 3.347 3.346v20.887a36 36 0 0 0 -39.382 30.6l-89.728-52.484a268.859 268.859 0 0 1 116.794-4.033zm-158 20.272a48.841 48.841 0 0 1 12.376-7c2.645-1.015 5.314-1.975 7.978-2.9l108.29 63.345h-43.977l-57.071-32.364-31.389-17.8a48.213 48.213 0 0 1 3.791-3.281zm64.7 160.323-73.704-92.958a48.474 48.474 0 0 1 -4.4-51.138l27.091 15.363 63.414 35.961 18.7 25.7a34.743 34.743 0 0 0 8.728 50.859 19.864 19.864 0 0 1 -1.011 4.581c-8.357 23.8-35.849 102.482-42.978 127.39l-23.917-4.783 29.626-103.653a8 8 0 0 0 -1.547-7.322zm-46.146 161.856a60.282 60.282 0 0 1 10.162-33.548l1.527-2.29 22.849 4.569c.063.014.126.026.19.038l11.219 2.244 27.014 9a21.973 21.973 0 0 1 15.043 20.872v2.381h-88zm271.762 35.266h-376a8 8 0 0 1 0-16h376a48.055 48.055 0 0 0 48-48 8 8 0 0 1 16 0 64.072 64.072 0 0 1 -64 64z"/><path d="m112 352a8 8 0 0 0 0 16h16a8 8 0 0 0 0-16z"/><path d="m24 352a8 8 0 0 0 0 16h56a8 8 0 0 0 0-16z"/><path d="m80 304a8 8 0 0 0 8 8h48a8 8 0 0 0 0-16h-48a8 8 0 0 0 -8 8z"/><path d="m24 312h32a8 8 0 0 0 0-16h-32a8 8 0 0 0 0 16z"/><path d="m104 264a8 8 0 0 0 0-16h-8a8 8 0 0 0 0 16z"/><path d="m64 248h-40a8 8 0 0 0 0 16h40a8 8 0 0 0 0-16z"/></g></svg>